<svg fill="none" height="100%" width="100%" viewBox="0 0 250 250" xmlns:xlink="http://www.w3.org/1999/xlink" xmlns="http://www.w3.org/2000/svg"><g id="i0"><animate repeatCount="indefinite" attributeName="opacity" dur="2s" begin="0s" fill="freeze" values="1; 1; 0; 0" keyTimes="0; 0.02; 0.98; 1" keySplines="0 0 1 1; 0.333 0 0.667 1; 0 0 1 1" calcMode="spline" /><g transform="translate(125,125)"><g transform="scale(1,1)"><animateTransform repeatCount="indefinite" type="scale" attributeName="transform" dur="2s" begin="0s" calcMode="spline" values="1 1; 1 1; 1.63 1.63; 1.63 1.63" keyTimes="0; 0.02; 0.98; 1" keySplines="0 0 1 1; 0.333 0 0.667 1; 0 0 1 1" fill="freeze" /><g transform="translate(0,0)"><g id="i1"><ellipse ry="71.5" rx="71.5" cy="0" cx="0" fill="#23b33a" /></g></g></g></g></g><g transform="matrix(1,0,0,1,125,125)" id="i2"><path d="M0.566,-66.792C37.767,-66.792,67.925,-36.635,67.925,0.566C67.925,37.767,39.768,67.925,2.567,67.925C-11.181,67.925,-24.123,65.658,-34.78,58.588C-34.78,58.588,-64.125,65.257,-64.125,65.257C-64.125,65.257,-56.122,37.246,-56.122,37.246C-63.724,26.339,-66.792,14.869,-66.792,0.566C-66.792,-36.635,-36.635,-66.792,0.566,-66.792Z" stroke-width="13" stroke="#ffffff" fill="#23b33a" /></g><g id="i3"><g transform="translate(125,125)"><g transform="rotate(0)"><animateTransform repeatCount="indefinite" type="rotate" attributeName="transform" dur="2s" begin="0s" calcMode="spline" values="0; 0; 15; -15; 15; -15; 0; 0" keyTimes="0; 0.05992; 0.21226; 0.35874; 0.6643; 0.81076; 0.957246; 1" keySplines="0 0 1 1; 0.542 0 0.667 1; 0.333 0 0.667 1; 0.333 0 0.667 1; 0.333 0 0.667 1; 0.333 0 0.394 1; 0 0 1 1" fill="freeze" /><g transform="scale(1,1) translate(0,0)"><path d="M-38.208,-19.182C-38.208,-12.788,-37.967,-10.413,-34.99,-4.461C-32.63,0.257,-32.056,0.452,-29.487,4.373C-29.487,4.373,-26.494,8.547,-26.494,8.547C-20.879,15.382,-22.582,13.543,-16.309,19.864C-8.189,28.046,0.062,31.933,10.722,35.797C19.652,39.034,27.681,40.452,35.854,34.37C39.726,31.488,41.717,28.688,42.209,23.511C42.354,21.987,42.5,21.038,42.365,20.176C41.957,17.574,38.315,16.931,34.599,15.049C30.324,12.884,23.004,8.165,20.558,10.756C20.558,10.756,14.256,18.781,14.256,18.781C13.173,20.101,12.04,20.59,10.207,19.832C2.618,16.692,-5.383,11.676,-10.571,5.488C-12.486,3.204,-13.95,1.193,-15.612,-1.299C-17.886,-4.709,-18.813,-5.515,-15.596,-8.678C-14.073,-10.175,-11.037,-13.774,-11.037,-16.311C-11.037,-17.523,-11.689,-18.294,-12.099,-19.187C-12.517,-20.097,-12.817,-21.008,-13.225,-22.01C-13.225,-22.01,-16.808,-30.617,-16.808,-30.617C-19.366,-37,-19.501,-35.762,-23.528,-36.079C-28.382,-36.461,-30.115,-36.029,-33.869,-30.983C-35.912,-28.236,-38.208,-23.874,-38.208,-19.182" fill="#ffffff" /></g></g></g></g></svg>